HIERARCHY
ROOT Hips
{
  OFFSET 155.048 98.1286 3.93448
  CHANNELS 6 Xposition Yposition Zposition Zrotation Xrotation Yrotation
  JOINT RightUpLeg
  {
    OFFSET -8.9458 -8.66707 0.101652
    CHANNELS 3 Zrotation Xrotation Yrotation
    JOINT RightLeg
    {
      OFFSET 0 -44.4227 1.3727
      CHANNELS 3 Zrotation Xrotation Yrotation
      JOINT RightFoot
      {
        OFFSET 0.253549 -42.0924 -1.46059
        CHANNELS 3 Zrotation Xrotation Yrotation
        JOINT RightToes
        {
          OFFSET 0.04 -4.41509 8.4991
          CHANNELS 3 Zrotation Xrotation Yrotation
          End Site
          {
            OFFSET -0.08 -0.137448 9.77979
          }
        }
      }
    }
  }
  JOINT Spine
  {
    OFFSET 0 11.8905 0
    CHANNELS 3 Zrotation Xrotation Yrotation
    JOINT Spine1
    {
      OFFSET 0 25.6574 0.127663
      CHANNELS 3 Zrotation Xrotation Yrotation
      JOINT Head
      {
        OFFSET 0 8.73416 0.011341
        CHANNELS 3 Zrotation Xrotation Yrotation
        End Site
        {
          OFFSET -0.29 12.7742 2.51395
        }
      }
      JOINT LeftShoulder1
      {
        OFFSET 8.99 -0.362252 -0.22
        CHANNELS 3 Zrotation Xrotation Yrotation
        JOINT LeftArm
        {
          OFFSET 10.2827 -0.00337999 0.322123
          CHANNELS 3 Zrotation Xrotation Yrotation
          JOINT LeftForeArm
          {
            OFFSET 26.2597 0.099144 -1.42434
            CHANNELS 3 Zrotation Xrotation Yrotation
            JOINT LeftHand
            {
              OFFSET 22.0902 0.085362 1.02216
              CHANNELS 3 Zrotation Xrotation Yrotation
              End Site
              {
                OFFSET 13.419 -0.6 1.50291
              }
            }
          }
        }
      }
      JOINT RightShoulder
      {
        OFFSET -8.99 -0.362252 -0.22
        CHANNELS 3 Zrotation Xrotation Yrotation
        JOINT RightArm
        {
          OFFSET -10.2827 -0.00338 0.322123
          CHANNELS 3 Zrotation Xrotation Yrotation
          JOINT RightForeArm
          {
            OFFSET -26.364 0.099144 -1.42434
            CHANNELS 3 Zrotation Xrotation Yrotation
            JOINT RightHand
            {
              OFFSET -22.0324 0.085362 1.02216
              CHANNELS 3 Zrotation Xrotation Yrotation
              End Site
              {
                OFFSET -13.3284 -0.6 1.50291
              }
            }
          }
        }
      }
    }
  }
  JOINT LeftUpLeg
  {
    OFFSET 8.9458 -8.66707 0.101652
    CHANNELS 3 Zrotation Xrotation Yrotation
    JOINT LeftLeg
    {
      OFFSET 0 -44.4227 1.3727
      CHANNELS 3 Zrotation Xrotation Yrotation
      JOINT LeftFoot
      {
        OFFSET -0.253549 -42.0924 -1.46059
        CHANNELS 3 Zrotation Xrotation Yrotation
        JOINT LeftToes
        {
          OFFSET -0.04 -4.41509 8.4991
          CHANNELS 3 Zrotation Xrotation Yrotation
          End Site
          {
            OFFSET 0.08 -0.047448 9.77979
          }
        }
      }
    }
  }
}
MOTION
Frames:	8
Frame Time:	0.0333333
-193.103 102.985 -8.48553 5.71385 1.74808 -110.392 -3.0676 -16.544 -0.202834 -0.987774 25.0057 -16.8468 8.8497 -9.74801 -0.0222067 0.0462048 0.000530889 0.662642 -2.92902 3.02258 -3.04515 3.27209 10.7871 -4.08684 18.0172 -9.83878 -52.8582 -33.1164 6.71098 -13.5246 -32.8989 -52.8844 6.51156 -12.2552 22.4089 5.25301 23.4198 9.15601 1.6753 45.3177 11.1905 17.4208 24.2103 -34.6823 -2.11082 -26.1886 35.0674 68.4986 -0.191678 9.9581 5.1456 4.25948 -21.2029 6.91252 0.514631 22.949 10.6852 -3.78219 -5.70601 0.0836093 -1.29604e-009 8.75243e-006 -1.45933e-008 
-192.845 103.202 -7.64577 6.14487 1.41305 -113.179 -2.86742 -15.6993 -0.570781 -1.03001 25.8544 -17.7663 8.89792 -9.4853 -0.0402493 0.0462048 0.000530889 0.662642 -4.22807 2.17789 -3.40776 4.48158 10.8442 -4.78426 17.6802 -8.66793 -57.5852 -32.5446 6.49317 -13.2209 -37.8696 -51.5217 6.45136 -12.9474 23.4015 3.14018 23.2862 9.10483 1.39085 45.5233 11.2335 17.4118 26.3446 -33.4726 -0.490527 -24.3092 37.3781 61.888 -0.452799 9.93256 4.70165 4.21528 -20.9543 7.05211 0.31073 21.4503 13.5091 -3.72748 -4.84512 0.105798 -1.29604e-009 8.75243e-006 -1.45933e-008 
-192.521 103.349 -6.87217 6.5224 0.881633 -116.69 -2.8462 -14.8522 -1.21342 -1.07761 26.6706 -18.9354 8.8519 -9.13875 -0.0658742 0.0462048 0.000530889 0.662642 -5.42385 0.854468 -3.56407 5.56159 11.4683 -5.22797 17.996 -8.55617 -58.6218 -32.1848 6.36807 -13.0549 -42.9469 -49.6117 4.95418 -13.7384 24.7176 0.974754 23.5655 9.01021 0.961322 45.8717 11.3143 17.411 28.0535 -34.1515 0.666543 -18.3906 37.8786 52.0094 -2.71993 9.7277 5.05176 4.40246 -20.8298 7.45755 -0.0649336 20.3213 16.8582 -3.93139 -4.30609 0.126011 -1.29604e-009 8.75243e-006 -1.45933e-008 
-192.131 103.431 -6.15522 6.81758 0.105123 -120.63 -3.25232 -13.9182 -2.61812 -1.12179 27.1831 -20.1069 8.87732 -8.80471 -0.0896171 0.0462048 0.000530889 0.662642 -6.75983 -0.635129 -3.66844 6.88498 12.1514 -5.66204 18.6302 -9.19461 -57.6583 -32.2777 6.32886 -12.9148 -47.3238 -45.8128 2.51992 -14.104 25.0837 -1.78642 23.8838 8.94021 0.674394 45.9648 11.3136 17.3695 29.3211 -35.86 1.1873 -10.8908 35.6588 41.0965 -5.53234 9.44869 5.76434 4.58848 -20.7363 7.73351 -0.551545 19.1827 20.5438 -4.13301 -3.83908 0.145872 -1.29604e-009 8.75243e-006 -1.45933e-008 
-191.693 103.494 -5.48271 6.94856 -0.829059 -124.998 -4.05569 -12.7911 -4.71963 -1.14748 27.2472 -20.8249 9.00384 -8.50909 -0.109855 0.0462048 0.000530889 0.662642 -8.03877 -1.99637 -3.76985 8.26135 12.4265 -6.07205 18.3379 -9.43441 -57.0362 -32.7646 6.37433 -12.8259 -49.9786 -38.9875 0.216646 -13.5648 23.7938 -5.45091 24.4108 8.88848 0.531483 45.5931 11.1393 17.2052 30.1383 -37.289 1.13295 -3.71271 30.2621 30.888 -7.86884 9.22975 5.66627 4.75555 -20.5124 7.88673 -1.03446 17.9088 24.665 -4.13162 -3.25298 0.163466 -1.29604e-009 8.75243e-006 -1.45933e-008 
-191.145 103.55 -4.86173 6.83737 -1.73144 -129.817 -4.97679 -11.5251 -6.83445 -1.16029 27.1061 -21.2358 8.94072 -8.22192 -0.131041 0.0462048 0.000530889 0.662642 -8.88566 -3.02406 -3.82444 9.20856 12.2509 -6.29976 17.413 -9.12453 -57.1171 -33.2544 6.4945 -12.9245 -50.3849 -31.5541 -1.28842 -12.3179 22.067 -9.10763 25.2515 8.78592 0.22294 44.9503 10.8478 16.9334 30.459 -39.0027 0.667099 1.41488 23.7544 22.6121 -9.39236 9.14879 4.74941 5.14278 -20.1535 8.40086 -1.51877 16.8068 29.0566 -4.19441 -2.70357 0.182789 -1.29604e-009 8.75243e-006 -1.45933e-008 
-190.387 103.567 -4.29553 6.52367 -2.48733 -134.998 -5.85742 -10.3384 -8.53396 -1.17021 27.0909 -21.5314 8.62032 -7.93756 -0.152447 0.0462048 0.000530889 0.662642 -9.35543 -3.82015 -3.85391 9.67858 12.1207 -6.39259 17.0228 -8.76524 -57.2177 -33.488 6.60293 -13.0978 -48.8295 -25.3656 -2.13617 -11.1318 18.747 -12.2547 25.5536 8.66152 -0.293069 44.3394 10.5681 16.6615 30.0209 -43.7648 -0.0773354 4.66785 20.6863 16.0676 -10.0055 9.17225 3.75569 5.90305 -19.8241 9.37809 -2.04474 16.1645 33.439 -4.46292 -2.31691 0.207096 -1.29604e-009 8.75243e-006 -1.45933e-008 
-189.401 103.518 -3.76396 6.09313 -3.09682 -140.498 -6.75863 -9.38967 -10.1128 -1.16635 27.2644 -21.3802 8.24506 -7.76614 -0.16477 0.0462048 0.000530889 0.662642 -9.76314 -4.57784 -3.9465 9.93788 12.4374 -6.53231 17.3502 -8.6237 -56.9117 -33.4375 6.56306 -13.0193 -45.9163 -21.104 -2.46771 -10.6699 12.6591 -15.1404 24.4368 8.65137 -0.615241 43.9593 10.4073 16.5134 28.9186 -47.7978 -0.874275 6.44577 18.7094 11.1737 -10.3059 9.2032 3.08307 6.98735 -19.6576 10.5435 -2.5078 16.1242 37.8709 -4.69782 -1.92855 0.23162 -1.29604e-009 8.75243e-006 -1.45933e-008 
